<svg width="256" height="128" viewBox="0 0 256 128" fill="none" xmlns="http://www.w3.org/2000/svg">
<path d="M32.976 38.16H61.584V45.136H32.976V38.16ZM22.032 54.032H78.096V61.328H22.032V54.032ZM45.776 49.936H54.032V70.992C54.032 75.088 53.072 77.2 49.936 78.352C46.864 79.504 42.768 79.632 37.456 79.632C36.944 77.328 35.408 73.872 34.128 71.76C38.032 71.952 42.896 72.016 44.176 71.952C45.456 71.888 45.776 71.632 45.776 70.736V49.936ZM59.216 38.16H61.264L62.992 37.776L67.92 41.616C63.76 46.352 57.808 51.664 51.6 54.864C50.704 53.584 48.656 51.6 47.568 50.576C52.112 47.888 56.976 42.96 59.216 39.632V38.16ZM45.776 19.664H53.968V31.312H45.776V19.664ZM22.288 25.808H77.584V42.448H69.648V33.04H29.84V42.448H22.288V25.808Z" fill="#FF3434"/>
<path d="M32.8885 97.608L30.3925 92.552C32.0565 92.552 33.4218 92.2533 34.4885 91.656C35.5978 91.1013 36.4298 90.248 36.9845 89.096C37.5392 87.9867 37.8165 86.6 37.8165 84.936V51.4H44.4085V86.536C44.4085 88.712 43.9178 90.632 42.9365 92.296C41.9978 93.96 40.6538 95.2613 38.9045 96.2C37.1978 97.1387 35.1925 97.608 32.8885 97.608ZM41.2725 43.976C39.8645 43.976 38.7765 43.6133 38.0085 42.888C37.2405 42.1627 36.8565 41.1387 36.8565 39.816C36.8565 38.5787 37.2405 37.576 38.0085 36.808C38.8192 36.04 39.9072 35.656 41.2725 35.656C42.6805 35.656 43.7685 36.0187 44.5365 36.744C45.3045 37.4693 45.6885 38.4933 45.6885 39.816C45.6885 41.0533 45.2832 42.056 44.4725 42.824C43.7045 43.592 42.6378 43.976 41.2725 43.976ZM54.946 85V51.4H61.538V85H54.946ZM58.146 43.976C56.738 43.976 55.65 43.6133 54.882 42.888C54.114 42.1627 53.73 41.1387 53.73 39.816C53.73 38.5787 54.114 37.576 54.882 36.808C55.6927 36.04 56.7807 35.656 58.146 35.656C59.554 35.656 60.642 36.0187 61.41 36.744C62.178 37.4693 62.562 38.4933 62.562 39.816C62.562 41.0533 62.1567 42.056 61.346 42.824C60.578 43.592 59.5113 43.976 58.146 43.976ZM92.0225 85.704C90.4865 85.704 89.0145 85.4907 87.6065 85.064C86.1985 84.6373 84.9185 84.0613 83.7665 83.336C82.6572 82.6107 81.7185 81.7787 80.9505 80.84C80.2252 79.8587 79.7345 78.856 79.4785 77.832L81.7185 77.064L81.1425 84.936H71.6065V37.64H81.9105V59.144L79.7985 58.376C80.0545 57.2667 80.5452 56.2427 81.2705 55.304C81.9958 54.3227 82.9132 53.4693 84.0225 52.744C85.1318 51.976 86.3478 51.3787 87.6705 50.952C88.9932 50.5253 90.3585 50.312 91.7665 50.312C94.7105 50.312 97.3132 51.08 99.5745 52.616C101.879 54.1093 103.692 56.2 105.015 58.888C106.337 61.5333 106.999 64.5627 106.999 67.976C106.999 71.432 106.337 74.504 105.015 77.192C103.735 79.8373 101.964 81.928 99.7025 83.464C97.4412 84.9573 94.8812 85.704 92.0225 85.704ZM89.3345 77.064C90.8705 77.064 92.2145 76.68 93.3665 75.912C94.5185 75.144 95.3932 74.0987 95.9905 72.776C96.6305 71.4107 96.9505 69.8107 96.9505 67.976C96.9505 66.184 96.6305 64.6053 95.9905 63.24C95.3932 61.8747 94.5185 60.8293 93.3665 60.104C92.2145 59.3787 90.8705 59.016 89.3345 59.016C87.7558 59.016 86.3905 59.3787 85.2385 60.104C84.0865 60.8293 83.1905 61.8747 82.5505 63.24C81.9105 64.6053 81.5905 66.184 81.5905 67.976C81.5905 69.8107 81.9105 71.4107 82.5505 72.776C83.1905 74.0987 84.0865 75.144 85.2385 75.912C86.3905 76.68 87.7558 77.064 89.3345 77.064ZM126.276 85.576C123.417 85.576 120.857 84.8293 118.595 83.336C116.377 81.8 114.606 79.7093 113.284 77.064C111.961 74.376 111.299 71.3467 111.299 67.976C111.299 64.52 111.961 61.4693 113.284 58.824C114.606 56.1787 116.42 54.1093 118.724 52.616C121.028 51.08 123.652 50.312 126.596 50.312C128.217 50.312 129.689 50.5467 131.012 51.016C132.377 51.4853 133.572 52.1467 134.596 53C135.62 53.8107 136.494 54.7707 137.22 55.88C137.945 56.9467 138.478 58.0987 138.82 59.336L136.708 59.08V51.016H146.884V85H136.516V76.808L138.82 76.744C138.478 77.9387 137.924 79.0693 137.156 80.136C136.388 81.2027 135.449 82.1413 134.34 82.952C133.23 83.7627 131.993 84.4027 130.628 84.872C129.262 85.3413 127.812 85.576 126.276 85.576ZM129.092 76.936C130.67 76.936 132.036 76.5733 133.188 75.848C134.34 75.1227 135.236 74.0987 135.876 72.776C136.516 71.4107 136.836 69.8107 136.836 67.976C136.836 66.1413 136.516 64.5627 135.876 63.24C135.236 61.8747 134.34 60.8293 133.188 60.104C132.036 59.336 130.67 58.952 129.092 58.952C127.556 58.952 126.212 59.336 125.06 60.104C123.95 60.8293 123.076 61.8747 122.436 63.24C121.796 64.5627 121.476 66.1413 121.476 67.976C121.476 69.8107 121.796 71.4107 122.436 72.776C123.076 74.0987 123.95 75.1227 125.06 75.848C126.212 76.5733 127.556 76.936 129.092 76.936ZM167.375 85.64C164.047 85.64 161.103 85.1067 158.543 84.04C156.026 82.9733 154.02 81.544 152.527 79.752L158.735 74.376C160.058 75.6987 161.551 76.68 163.215 77.32C164.879 77.9173 166.458 78.216 167.951 78.216C168.548 78.216 169.082 78.152 169.551 78.024C170.02 77.896 170.404 77.7253 170.703 77.512C171.044 77.256 171.3 76.9787 171.471 76.68C171.642 76.3387 171.727 75.9547 171.727 75.528C171.727 74.6747 171.343 74.0133 170.575 73.544C170.191 73.3307 169.551 73.0747 168.655 72.776C167.759 72.4773 166.607 72.136 165.199 71.752C163.194 71.24 161.444 70.6427 159.951 69.96C158.5 69.2347 157.306 68.4027 156.367 67.464C155.514 66.568 154.852 65.5867 154.383 64.52C153.914 63.4107 153.679 62.1733 153.679 60.808C153.679 59.2293 154.042 57.8 154.767 56.52C155.535 55.24 156.538 54.1307 157.775 53.192C159.055 52.2533 160.506 51.5493 162.127 51.08C163.791 50.568 165.498 50.312 167.247 50.312C169.124 50.312 170.916 50.5253 172.623 50.952C174.33 51.3787 175.908 51.976 177.359 52.744C178.852 53.512 180.175 54.4293 181.327 55.496L175.951 61.512C175.183 60.7867 174.308 60.1467 173.327 59.592C172.388 58.9947 171.407 58.5253 170.383 58.184C169.359 57.8427 168.42 57.672 167.567 57.672C166.927 57.672 166.351 57.736 165.839 57.864C165.37 57.9493 164.964 58.12 164.623 58.376C164.282 58.5893 164.026 58.8667 163.855 59.208C163.684 59.5067 163.599 59.8693 163.599 60.296C163.599 60.7227 163.706 61.128 163.919 61.512C164.175 61.896 164.516 62.216 164.943 62.472C165.37 62.728 166.052 63.0267 166.991 63.368C167.93 63.6667 169.21 64.0507 170.831 64.52C172.836 65.0747 174.564 65.6933 176.015 66.376C177.466 67.0587 178.618 67.8693 179.471 68.808C180.154 69.5333 180.666 70.3867 181.007 71.368C181.348 72.3067 181.519 73.3307 181.519 74.44C181.519 76.616 180.9 78.5573 179.663 80.264C178.468 81.928 176.804 83.2507 174.671 84.232C172.538 85.1707 170.106 85.64 167.375 85.64ZM187.607 85V37.64H197.655V57.928L195.607 58.696C196.076 57.16 196.908 55.7733 198.103 54.536C199.34 53.256 200.812 52.232 202.519 51.464C204.225 50.696 206.017 50.312 207.895 50.312C210.455 50.312 212.609 50.8453 214.359 51.912C216.108 52.936 217.431 54.4933 218.326 56.584C219.223 58.632 219.671 61.1493 219.671 64.136V85H209.367V64.968C209.367 63.6027 209.175 62.472 208.791 61.576C208.407 60.68 207.809 60.0187 206.999 59.592C206.231 59.1227 205.271 58.9093 204.119 58.952C203.223 58.952 202.391 59.1013 201.623 59.4C200.855 59.656 200.193 60.0613 199.639 60.616C199.084 61.128 198.636 61.7253 198.295 62.408C197.996 63.0907 197.847 63.8373 197.847 64.648V85H192.791C191.596 85 190.572 85 189.719 85C188.865 85 188.161 85 187.607 85Z" fill="black"/>
</svg>
